<mxfile host="65bd71144e">
    <diagram id="C5RBs43oDa-KdzZeNtuy" name="Roadmap/Types">
        <mxGraphModel dx="1253" dy="999" grid="1" gridSize="10" guides="1" tooltips="1" connect="1" arrows="1" fold="1" page="1" pageScale="1" pageWidth="827" pageHeight="1169" math="0" shadow="0">
            <root>
                <mxCell id="WIyWlLk6GJQsqaUBKTNV-0"/>
                <mxCell id="WIyWlLk6GJQsqaUBKTNV-1" parent="WIyWlLk6GJQsqaUBKTNV-0"/>
                <mxCell id="zkfFHV4jXpPFQw0GAbJ--0" value="Station" style="swimlane;fontStyle=0;align=center;verticalAlign=top;childLayout=stackLayout;horizontal=1;startSize=26;horizontalStack=0;resizeParent=1;resizeLast=0;collapsible=1;marginBottom=0;rounded=0;shadow=0;strokeWidth=1;fillColor=#60a917;fontColor=#ffffff;strokeColor=#2D7600;" parent="WIyWlLk6GJQsqaUBKTNV-1" vertex="1">
                    <mxGeometry x="314" y="20" width="200" height="208" as="geometry">
                        <mxRectangle x="230" y="140" width="160" height="26" as="alternateBounds"/>
                    </mxGeometry>
                </mxCell>
                <mxCell id="I166LaLT76AZN9bSvU90-0" value="Id: (Int)" style="text;align=left;verticalAlign=top;spacingLeft=4;spacingRight=4;overflow=hidden;rotatable=0;points=[[0,0.5],[1,0.5]];portConstraint=eastwest;rounded=0;shadow=0;html=0;" parent="zkfFHV4jXpPFQw0GAbJ--0" vertex="1">
                    <mxGeometry y="26" width="200" height="26" as="geometry"/>
                </mxCell>
                <mxCell id="zkfFHV4jXpPFQw0GAbJ--3" value="Hydrogen: (Int) Current" style="text;align=left;verticalAlign=top;spacingLeft=4;spacingRight=4;overflow=hidden;rotatable=0;points=[[0,0.5],[1,0.5]];portConstraint=eastwest;rounded=0;shadow=0;html=0;" parent="zkfFHV4jXpPFQw0GAbJ--0" vertex="1">
                    <mxGeometry y="52" width="200" height="26" as="geometry"/>
                </mxCell>
                <mxCell id="zkfFHV4jXpPFQw0GAbJ--1" value="Power: (Int) Current" style="text;align=left;verticalAlign=top;spacingLeft=4;spacingRight=4;overflow=hidden;rotatable=0;points=[[0,0.5],[1,0.5]];portConstraint=eastwest;" parent="zkfFHV4jXpPFQw0GAbJ--0" vertex="1">
                    <mxGeometry y="78" width="200" height="26" as="geometry"/>
                </mxCell>
                <mxCell id="zkfFHV4jXpPFQw0GAbJ--2" value="Currency: (Int) Current" style="text;align=left;verticalAlign=top;spacingLeft=4;spacingRight=4;overflow=hidden;rotatable=0;points=[[0,0.5],[1,0.5]];portConstraint=eastwest;rounded=0;shadow=0;html=0;" parent="zkfFHV4jXpPFQw0GAbJ--0" vertex="1">
                    <mxGeometry y="104" width="200" height="26" as="geometry"/>
                </mxCell>
                <mxCell id="zkfFHV4jXpPFQw0GAbJ--5" value="Crew:(Int) Current" style="text;align=left;verticalAlign=top;spacingLeft=4;spacingRight=4;overflow=hidden;rotatable=0;points=[[0,0.5],[1,0.5]];portConstraint=eastwest;" parent="zkfFHV4jXpPFQw0GAbJ--0" vertex="1">
                    <mxGeometry y="130" width="200" height="26" as="geometry"/>
                </mxCell>
                <mxCell id="hzhiiLF0QnC_eUO_uc99-5" value="TimeCreated: (datetime) &#xa;" style="text;align=left;verticalAlign=top;spacingLeft=4;spacingRight=4;overflow=hidden;rotatable=0;points=[[0,0.5],[1,0.5]];portConstraint=eastwest;" parent="zkfFHV4jXpPFQw0GAbJ--0" vertex="1">
                    <mxGeometry y="156" width="200" height="26" as="geometry"/>
                </mxCell>
                <mxCell id="hzhiiLF0QnC_eUO_uc99-6" value="TimeLastSaved: (datetime) &#xa;" style="text;align=left;verticalAlign=top;spacingLeft=4;spacingRight=4;overflow=hidden;rotatable=0;points=[[0,0.5],[1,0.5]];portConstraint=eastwest;" parent="zkfFHV4jXpPFQw0GAbJ--0" vertex="1">
                    <mxGeometry y="182" width="200" height="26" as="geometry"/>
                </mxCell>
                <mxCell id="zkfFHV4jXpPFQw0GAbJ--6" value="Room" style="swimlane;fontStyle=0;align=center;verticalAlign=top;childLayout=stackLayout;horizontal=1;startSize=26;horizontalStack=0;resizeParent=1;resizeLast=0;collapsible=1;marginBottom=0;rounded=0;shadow=0;strokeWidth=1;fillColor=#60a917;fontColor=#ffffff;strokeColor=#2D7600;" parent="WIyWlLk6GJQsqaUBKTNV-1" vertex="1">
                    <mxGeometry x="24" y="282" width="296" height="130" as="geometry">
                        <mxRectangle x="130" y="380" width="160" height="26" as="alternateBounds"/>
                    </mxGeometry>
                </mxCell>
                <mxCell id="zkfFHV4jXpPFQw0GAbJ--7" value="Id: (Int) " style="text;align=left;verticalAlign=top;spacingLeft=4;spacingRight=4;overflow=hidden;rotatable=0;points=[[0,0.5],[1,0.5]];portConstraint=eastwest;" parent="zkfFHV4jXpPFQw0GAbJ--6" vertex="1">
                    <mxGeometry y="26" width="296" height="26" as="geometry"/>
                </mxCell>
                <mxCell id="zkfFHV4jXpPFQw0GAbJ--8" value="RoomTypeId: (Int)" style="text;align=left;verticalAlign=top;spacingLeft=4;spacingRight=4;overflow=hidden;rotatable=0;points=[[0,0.5],[1,0.5]];portConstraint=eastwest;rounded=0;shadow=0;html=0;" parent="zkfFHV4jXpPFQw0GAbJ--6" vertex="1">
                    <mxGeometry y="52" width="296" height="26" as="geometry"/>
                </mxCell>
                <mxCell id="hzhiiLF0QnC_eUO_uc99-9" value="TopLeft: (Vector2)" style="text;align=left;verticalAlign=top;spacingLeft=4;spacingRight=4;overflow=hidden;rotatable=0;points=[[0,0.5],[1,0.5]];portConstraint=eastwest;rounded=0;shadow=0;html=0;" parent="zkfFHV4jXpPFQw0GAbJ--6" vertex="1">
                    <mxGeometry y="78" width="296" height="26" as="geometry"/>
                </mxCell>
                <mxCell id="hzhiiLF0QnC_eUO_uc99-26" value="BottomRight: (Vector2)" style="text;align=left;verticalAlign=top;spacingLeft=4;spacingRight=4;overflow=hidden;rotatable=0;points=[[0,0.5],[1,0.5]];portConstraint=eastwest;rounded=0;shadow=0;html=0;" parent="zkfFHV4jXpPFQw0GAbJ--6" vertex="1">
                    <mxGeometry y="104" width="296" height="26" as="geometry"/>
                </mxCell>
                <mxCell id="zkfFHV4jXpPFQw0GAbJ--12" value="" style="endArrow=block;endSize=10;endFill=0;shadow=0;strokeWidth=1;rounded=0;edgeStyle=elbowEdgeStyle;elbow=vertical;" parent="WIyWlLk6GJQsqaUBKTNV-1" source="zkfFHV4jXpPFQw0GAbJ--6" target="zkfFHV4jXpPFQw0GAbJ--0" edge="1">
                    <mxGeometry width="160" relative="1" as="geometry">
                        <mxPoint x="200" y="203" as="sourcePoint"/>
                        <mxPoint x="200" y="203" as="targetPoint"/>
                    </mxGeometry>
                </mxCell>
                <mxCell id="zkfFHV4jXpPFQw0GAbJ--13" value="Person" style="swimlane;fontStyle=0;align=center;verticalAlign=top;childLayout=stackLayout;horizontal=1;startSize=26;horizontalStack=0;resizeParent=1;resizeLast=0;collapsible=1;marginBottom=0;rounded=0;shadow=0;strokeWidth=1;fillColor=#7F00FF;fontColor=#ffffff;strokeColor=#3700CC;" parent="WIyWlLk6GJQsqaUBKTNV-1" vertex="1">
                    <mxGeometry x="640" y="200" width="160" height="188" as="geometry">
                        <mxRectangle x="340" y="380" width="170" height="26" as="alternateBounds"/>
                    </mxGeometry>
                </mxCell>
                <mxCell id="zkfFHV4jXpPFQw0GAbJ--14" value="Id: (Int)" style="text;align=left;verticalAlign=top;spacingLeft=4;spacingRight=4;overflow=hidden;rotatable=0;points=[[0,0.5],[1,0.5]];portConstraint=eastwest;" parent="zkfFHV4jXpPFQw0GAbJ--13" vertex="1">
                    <mxGeometry y="26" width="160" height="26" as="geometry"/>
                </mxCell>
                <mxCell id="hzhiiLF0QnC_eUO_uc99-65" value="Type: Crew, Tourist " style="text;align=left;verticalAlign=top;spacingLeft=4;spacingRight=4;overflow=hidden;rotatable=0;points=[[0,0.5],[1,0.5]];portConstraint=eastwest;" parent="zkfFHV4jXpPFQw0GAbJ--13" vertex="1">
                    <mxGeometry y="52" width="160" height="26" as="geometry"/>
                </mxCell>
                <mxCell id="hzhiiLF0QnC_eUO_uc99-62" value="PersonalityId: (Int)" style="text;align=left;verticalAlign=top;spacingLeft=4;spacingRight=4;overflow=hidden;rotatable=0;points=[[0,0.5],[1,0.5]];portConstraint=eastwest;" parent="zkfFHV4jXpPFQw0GAbJ--13" vertex="1">
                    <mxGeometry y="78" width="160" height="26" as="geometry"/>
                </mxCell>
                <mxCell id="hzhiiLF0QnC_eUO_uc99-63" value="LookId: (Int)" style="text;align=left;verticalAlign=top;spacingLeft=4;spacingRight=4;overflow=hidden;rotatable=0;points=[[0,0.5],[1,0.5]];portConstraint=eastwest;" parent="zkfFHV4jXpPFQw0GAbJ--13" vertex="1">
                    <mxGeometry y="104" width="160" height="26" as="geometry"/>
                </mxCell>
                <mxCell id="hzhiiLF0QnC_eUO_uc99-66" value="SkillId: NULL, Int" style="text;align=left;verticalAlign=top;spacingLeft=4;spacingRight=4;overflow=hidden;rotatable=0;points=[[0,0.5],[1,0.5]];portConstraint=eastwest;" parent="zkfFHV4jXpPFQw0GAbJ--13" vertex="1">
                    <mxGeometry y="130" width="160" height="26" as="geometry"/>
                </mxCell>
                <mxCell id="hzhiiLF0QnC_eUO_uc99-39" value="Faction: NULL, string" style="text;align=left;verticalAlign=top;spacingLeft=4;spacingRight=4;overflow=hidden;rotatable=0;points=[[0,0.5],[1,0.5]];portConstraint=eastwest;" parent="zkfFHV4jXpPFQw0GAbJ--13" vertex="1">
                    <mxGeometry y="156" width="160" height="26" as="geometry"/>
                </mxCell>
                <mxCell id="zkfFHV4jXpPFQw0GAbJ--16" value="" style="endArrow=block;endSize=10;endFill=0;shadow=0;strokeWidth=1;rounded=0;edgeStyle=elbowEdgeStyle;elbow=vertical;" parent="WIyWlLk6GJQsqaUBKTNV-1" source="zkfFHV4jXpPFQw0GAbJ--13" target="zkfFHV4jXpPFQw0GAbJ--0" edge="1">
                    <mxGeometry width="160" relative="1" as="geometry">
                        <mxPoint x="210" y="373" as="sourcePoint"/>
                        <mxPoint x="310" y="271" as="targetPoint"/>
                    </mxGeometry>
                </mxCell>
                <mxCell id="hzhiiLF0QnC_eUO_uc99-25" style="edgeStyle=orthogonalEdgeStyle;rounded=0;orthogonalLoop=1;jettySize=auto;html=1;entryX=0.493;entryY=1;entryDx=0;entryDy=0;entryPerimeter=0;endArrow=block;endFill=0;endSize=10;" parent="WIyWlLk6GJQsqaUBKTNV-1" source="hzhiiLF0QnC_eUO_uc99-13" target="hzhiiLF0QnC_eUO_uc99-26" edge="1">
                    <mxGeometry relative="1" as="geometry">
                        <mxPoint x="264" y="400" as="targetPoint"/>
                    </mxGeometry>
                </mxCell>
                <mxCell id="hzhiiLF0QnC_eUO_uc99-13" value="Room_Type" style="swimlane;fontStyle=0;align=center;verticalAlign=top;childLayout=stackLayout;horizontal=1;startSize=26;horizontalStack=0;resizeParent=1;resizeLast=0;collapsible=1;marginBottom=0;rounded=0;shadow=0;strokeWidth=1;fillColor=#60a917;fontColor=#ffffff;strokeColor=#2D7600;" parent="WIyWlLk6GJQsqaUBKTNV-1" vertex="1">
                    <mxGeometry x="20" y="490" width="300" height="234" as="geometry">
                        <mxRectangle x="130" y="380" width="160" height="26" as="alternateBounds"/>
                    </mxGeometry>
                </mxCell>
                <mxCell id="hzhiiLF0QnC_eUO_uc99-14" value="Id: (Int) " style="text;align=left;verticalAlign=top;spacingLeft=4;spacingRight=4;overflow=hidden;rotatable=0;points=[[0,0.5],[1,0.5]];portConstraint=eastwest;" parent="hzhiiLF0QnC_eUO_uc99-13" vertex="1">
                    <mxGeometry y="26" width="300" height="26" as="geometry"/>
                </mxCell>
                <mxCell id="hzhiiLF0QnC_eUO_uc99-15" value="Name: (String)" style="text;align=left;verticalAlign=top;spacingLeft=4;spacingRight=4;overflow=hidden;rotatable=0;points=[[0,0.5],[1,0.5]];portConstraint=eastwest;rounded=0;shadow=0;html=0;" parent="hzhiiLF0QnC_eUO_uc99-13" vertex="1">
                    <mxGeometry y="52" width="300" height="26" as="geometry"/>
                </mxCell>
                <mxCell id="hzhiiLF0QnC_eUO_uc99-18" value="Price: (Int)" style="text;align=left;verticalAlign=top;spacingLeft=4;spacingRight=4;overflow=hidden;rotatable=0;points=[[0,0.5],[1,0.5]];portConstraint=eastwest;rounded=0;shadow=0;html=0;" parent="hzhiiLF0QnC_eUO_uc99-13" vertex="1">
                    <mxGeometry y="78" width="300" height="26" as="geometry"/>
                </mxCell>
                <mxCell id="hzhiiLF0QnC_eUO_uc99-17" value="PowerConsumption: (Int)" style="text;align=left;verticalAlign=top;spacingLeft=4;spacingRight=4;overflow=hidden;rotatable=0;points=[[0,0.5],[1,0.5]];portConstraint=eastwest;rounded=0;shadow=0;html=0;" parent="hzhiiLF0QnC_eUO_uc99-13" vertex="1">
                    <mxGeometry y="104" width="300" height="26" as="geometry"/>
                </mxCell>
                <mxCell id="hzhiiLF0QnC_eUO_uc99-19" value="Capacity: (Float) Number of people at once in a room" style="text;align=left;verticalAlign=top;spacingLeft=4;spacingRight=4;overflow=hidden;rotatable=0;points=[[0,0.5],[1,0.5]];portConstraint=eastwest;rounded=0;shadow=0;html=0;" parent="hzhiiLF0QnC_eUO_uc99-13" vertex="1">
                    <mxGeometry y="130" width="300" height="26" as="geometry"/>
                </mxCell>
                <mxCell id="mUGmBTytR2KP4BA84_no-3" value="TileSetId: (Int)" style="text;align=left;verticalAlign=top;spacingLeft=4;spacingRight=4;overflow=hidden;rotatable=0;points=[[0,0.5],[1,0.5]];portConstraint=eastwest;rounded=0;shadow=0;html=0;" parent="hzhiiLF0QnC_eUO_uc99-13" vertex="1">
                    <mxGeometry y="156" width="300" height="26" as="geometry"/>
                </mxCell>
                <mxCell id="hzhiiLF0QnC_eUO_uc99-32" value="MinTiles: (Int)" style="text;align=left;verticalAlign=top;spacingLeft=4;spacingRight=4;overflow=hidden;rotatable=0;points=[[0,0.5],[1,0.5]];portConstraint=eastwest;rounded=0;shadow=0;html=0;" parent="hzhiiLF0QnC_eUO_uc99-13" vertex="1">
                    <mxGeometry y="182" width="300" height="26" as="geometry"/>
                </mxCell>
                <mxCell id="hzhiiLF0QnC_eUO_uc99-33" value="MaxTiles: (Int)" style="text;align=left;verticalAlign=top;spacingLeft=4;spacingRight=4;overflow=hidden;rotatable=0;points=[[0,0.5],[1,0.5]];portConstraint=eastwest;rounded=0;shadow=0;html=0;" parent="hzhiiLF0QnC_eUO_uc99-13" vertex="1">
                    <mxGeometry y="208" width="300" height="26" as="geometry"/>
                </mxCell>
                <mxCell id="hzhiiLF0QnC_eUO_uc99-61" style="edgeStyle=elbowEdgeStyle;rounded=0;orthogonalLoop=1;jettySize=auto;html=1;entryX=0.5;entryY=1;entryDx=0;entryDy=0;endArrow=block;endFill=0;endSize=10;elbow=vertical;" parent="WIyWlLk6GJQsqaUBKTNV-1" source="hzhiiLF0QnC_eUO_uc99-40" target="zkfFHV4jXpPFQw0GAbJ--13" edge="1">
                    <mxGeometry relative="1" as="geometry"/>
                </mxCell>
                <mxCell id="hzhiiLF0QnC_eUO_uc99-40" value="Personality" style="swimlane;fontStyle=0;align=center;verticalAlign=top;childLayout=stackLayout;horizontal=1;startSize=26;horizontalStack=0;resizeParent=1;resizeLast=0;collapsible=1;marginBottom=0;rounded=0;shadow=0;strokeWidth=1;fillColor=#007FFF;fontColor=#ffffff;strokeColor=#007FFF;" parent="WIyWlLk6GJQsqaUBKTNV-1" vertex="1">
                    <mxGeometry x="382" y="514" width="196" height="160" as="geometry">
                        <mxRectangle x="340" y="380" width="170" height="26" as="alternateBounds"/>
                    </mxGeometry>
                </mxCell>
                <mxCell id="hzhiiLF0QnC_eUO_uc99-41" value="Id: " style="text;align=left;verticalAlign=top;spacingLeft=4;spacingRight=4;overflow=hidden;rotatable=0;points=[[0,0.5],[1,0.5]];portConstraint=eastwest;" parent="hzhiiLF0QnC_eUO_uc99-40" vertex="1">
                    <mxGeometry y="26" width="196" height="26" as="geometry"/>
                </mxCell>
                <mxCell id="hzhiiLF0QnC_eUO_uc99-42" value="Active (vs Lazy): Boolean" style="text;align=left;verticalAlign=top;spacingLeft=4;spacingRight=4;overflow=hidden;rotatable=0;points=[[0,0.5],[1,0.5]];portConstraint=eastwest;" parent="hzhiiLF0QnC_eUO_uc99-40" vertex="1">
                    <mxGeometry y="52" width="196" height="26" as="geometry"/>
                </mxCell>
                <mxCell id="hzhiiLF0QnC_eUO_uc99-43" value="Careful (vs Clumsy): Boolean" style="text;align=left;verticalAlign=top;spacingLeft=4;spacingRight=4;overflow=hidden;rotatable=0;points=[[0,0.5],[1,0.5]];portConstraint=eastwest;" parent="hzhiiLF0QnC_eUO_uc99-40" vertex="1">
                    <mxGeometry y="78" width="196" height="26" as="geometry"/>
                </mxCell>
                <mxCell id="hzhiiLF0QnC_eUO_uc99-44" value="Friendly (vs Unfriendly): Boolean" style="text;align=left;verticalAlign=top;spacingLeft=4;spacingRight=4;overflow=hidden;rotatable=0;points=[[0,0.5],[1,0.5]];portConstraint=eastwest;" parent="hzhiiLF0QnC_eUO_uc99-40" vertex="1">
                    <mxGeometry y="104" width="196" height="26" as="geometry"/>
                </mxCell>
                <mxCell id="hzhiiLF0QnC_eUO_uc99-45" value="Random Boon/Bane: " style="text;align=left;verticalAlign=top;spacingLeft=4;spacingRight=4;overflow=hidden;rotatable=0;points=[[0,0.5],[1,0.5]];portConstraint=eastwest;" parent="hzhiiLF0QnC_eUO_uc99-40" vertex="1">
                    <mxGeometry y="130" width="196" height="26" as="geometry"/>
                </mxCell>
                <mxCell id="hzhiiLF0QnC_eUO_uc99-60" style="edgeStyle=elbowEdgeStyle;rounded=0;orthogonalLoop=1;jettySize=auto;html=1;entryX=0.5;entryY=1;entryDx=0;entryDy=0;elbow=vertical;endArrow=block;endFill=0;endSize=10;" parent="WIyWlLk6GJQsqaUBKTNV-1" source="hzhiiLF0QnC_eUO_uc99-48" target="zkfFHV4jXpPFQw0GAbJ--13" edge="1">
                    <mxGeometry relative="1" as="geometry"/>
                </mxCell>
                <mxCell id="hzhiiLF0QnC_eUO_uc99-48" value="Look" style="swimlane;fontStyle=0;align=center;verticalAlign=top;childLayout=stackLayout;horizontal=1;startSize=26;horizontalStack=0;resizeParent=1;resizeLast=0;collapsible=1;marginBottom=0;rounded=0;shadow=0;strokeWidth=1;fillColor=#007FFF;fontColor=#ffffff;strokeColor=#007FFF;" parent="WIyWlLk6GJQsqaUBKTNV-1" vertex="1">
                    <mxGeometry x="750" y="514" width="160" height="208" as="geometry">
                        <mxRectangle x="340" y="380" width="170" height="26" as="alternateBounds"/>
                    </mxGeometry>
                </mxCell>
                <mxCell id="hzhiiLF0QnC_eUO_uc99-49" value="Id: " style="text;align=left;verticalAlign=top;spacingLeft=4;spacingRight=4;overflow=hidden;rotatable=0;points=[[0,0.5],[1,0.5]];portConstraint=eastwest;" parent="hzhiiLF0QnC_eUO_uc99-48" vertex="1">
                    <mxGeometry y="26" width="160" height="26" as="geometry"/>
                </mxCell>
                <mxCell id="hzhiiLF0QnC_eUO_uc99-50" value="Hair" style="text;align=left;verticalAlign=top;spacingLeft=4;spacingRight=4;overflow=hidden;rotatable=0;points=[[0,0.5],[1,0.5]];portConstraint=eastwest;" parent="hzhiiLF0QnC_eUO_uc99-48" vertex="1">
                    <mxGeometry y="52" width="160" height="26" as="geometry"/>
                </mxCell>
                <mxCell id="hzhiiLF0QnC_eUO_uc99-51" value="Clothes" style="text;align=left;verticalAlign=top;spacingLeft=4;spacingRight=4;overflow=hidden;rotatable=0;points=[[0,0.5],[1,0.5]];portConstraint=eastwest;" parent="hzhiiLF0QnC_eUO_uc99-48" vertex="1">
                    <mxGeometry y="78" width="160" height="26" as="geometry"/>
                </mxCell>
                <mxCell id="hzhiiLF0QnC_eUO_uc99-52" value="Face" style="text;align=left;verticalAlign=top;spacingLeft=4;spacingRight=4;overflow=hidden;rotatable=0;points=[[0,0.5],[1,0.5]];portConstraint=eastwest;" parent="hzhiiLF0QnC_eUO_uc99-48" vertex="1">
                    <mxGeometry y="104" width="160" height="26" as="geometry"/>
                </mxCell>
                <mxCell id="hzhiiLF0QnC_eUO_uc99-53" value="SkinColour" style="text;align=left;verticalAlign=top;spacingLeft=4;spacingRight=4;overflow=hidden;rotatable=0;points=[[0,0.5],[1,0.5]];portConstraint=eastwest;" parent="hzhiiLF0QnC_eUO_uc99-48" vertex="1">
                    <mxGeometry y="130" width="160" height="26" as="geometry"/>
                </mxCell>
                <mxCell id="hzhiiLF0QnC_eUO_uc99-75" value="Sex" style="text;align=left;verticalAlign=top;spacingLeft=4;spacingRight=4;overflow=hidden;rotatable=0;points=[[0,0.5],[1,0.5]];portConstraint=eastwest;" parent="hzhiiLF0QnC_eUO_uc99-48" vertex="1">
                    <mxGeometry y="156" width="160" height="26" as="geometry"/>
                </mxCell>
                <mxCell id="hzhiiLF0QnC_eUO_uc99-76" value="Build" style="text;align=left;verticalAlign=top;spacingLeft=4;spacingRight=4;overflow=hidden;rotatable=0;points=[[0,0.5],[1,0.5]];portConstraint=eastwest;" parent="hzhiiLF0QnC_eUO_uc99-48" vertex="1">
                    <mxGeometry y="182" width="160" height="26" as="geometry"/>
                </mxCell>
                <mxCell id="hzhiiLF0QnC_eUO_uc99-73" style="edgeStyle=orthogonalEdgeStyle;rounded=0;orthogonalLoop=1;jettySize=auto;html=1;entryX=1;entryY=0.923;entryDx=0;entryDy=0;entryPerimeter=0;endArrow=block;endFill=0;endSize=10;" parent="WIyWlLk6GJQsqaUBKTNV-1" source="hzhiiLF0QnC_eUO_uc99-67" target="hzhiiLF0QnC_eUO_uc99-63" edge="1">
                    <mxGeometry relative="1" as="geometry"/>
                </mxCell>
                <mxCell id="hzhiiLF0QnC_eUO_uc99-67" value="Skill" style="swimlane;fontStyle=0;align=center;verticalAlign=top;childLayout=stackLayout;horizontal=1;startSize=26;horizontalStack=0;resizeParent=1;resizeLast=0;collapsible=1;marginBottom=0;rounded=0;shadow=0;strokeWidth=1;fillColor=#007FFF;fontColor=#ffffff;strokeColor=#007FFF;" parent="WIyWlLk6GJQsqaUBKTNV-1" vertex="1">
                    <mxGeometry x="870" y="220" width="160" height="130" as="geometry">
                        <mxRectangle x="340" y="380" width="170" height="26" as="alternateBounds"/>
                    </mxGeometry>
                </mxCell>
                <mxCell id="hzhiiLF0QnC_eUO_uc99-68" value="Id: " style="text;align=left;verticalAlign=top;spacingLeft=4;spacingRight=4;overflow=hidden;rotatable=0;points=[[0,0.5],[1,0.5]];portConstraint=eastwest;" parent="hzhiiLF0QnC_eUO_uc99-67" vertex="1">
                    <mxGeometry y="26" width="160" height="26" as="geometry"/>
                </mxCell>
                <mxCell id="hzhiiLF0QnC_eUO_uc99-69" value="MachineRepair" style="text;align=left;verticalAlign=top;spacingLeft=4;spacingRight=4;overflow=hidden;rotatable=0;points=[[0,0.5],[1,0.5]];portConstraint=eastwest;" parent="hzhiiLF0QnC_eUO_uc99-67" vertex="1">
                    <mxGeometry y="52" width="160" height="26" as="geometry"/>
                </mxCell>
                <mxCell id="hzhiiLF0QnC_eUO_uc99-70" value="Strength: " style="text;align=left;verticalAlign=top;spacingLeft=4;spacingRight=4;overflow=hidden;rotatable=0;points=[[0,0.5],[1,0.5]];portConstraint=eastwest;" parent="hzhiiLF0QnC_eUO_uc99-67" vertex="1">
                    <mxGeometry y="78" width="160" height="26" as="geometry"/>
                </mxCell>
                <mxCell id="hzhiiLF0QnC_eUO_uc99-71" value="Leadership:" style="text;align=left;verticalAlign=top;spacingLeft=4;spacingRight=4;overflow=hidden;rotatable=0;points=[[0,0.5],[1,0.5]];portConstraint=eastwest;" parent="hzhiiLF0QnC_eUO_uc99-67" vertex="1">
                    <mxGeometry y="104" width="160" height="26" as="geometry"/>
                </mxCell>
                <mxCell id="hzhiiLF0QnC_eUO_uc99-77" value="&lt;font color=&quot;#7f00ff&quot;&gt;Phase 2&lt;/font&gt;" style="text;strokeColor=none;align=center;fillColor=none;html=1;verticalAlign=middle;whiteSpace=wrap;rounded=0;strokeWidth=1;" parent="WIyWlLk6GJQsqaUBKTNV-1" vertex="1">
                    <mxGeometry x="146" y="70" width="60" height="30" as="geometry"/>
                </mxCell>
                <mxCell id="hzhiiLF0QnC_eUO_uc99-78" value="&lt;font color=&quot;#60a917&quot;&gt;Phase 1&lt;/font&gt;" style="text;strokeColor=none;align=center;fillColor=none;html=1;verticalAlign=middle;whiteSpace=wrap;rounded=0;strokeWidth=1;" parent="WIyWlLk6GJQsqaUBKTNV-1" vertex="1">
                    <mxGeometry x="86" y="70" width="60" height="30" as="geometry"/>
                </mxCell>
                <mxCell id="hzhiiLF0QnC_eUO_uc99-79" value="&lt;font color=&quot;#007fff&quot;&gt;Phase 3&lt;/font&gt;" style="text;strokeColor=none;align=center;fillColor=none;html=1;verticalAlign=middle;whiteSpace=wrap;rounded=0;strokeWidth=1;" parent="WIyWlLk6GJQsqaUBKTNV-1" vertex="1">
                    <mxGeometry x="206" y="70" width="60" height="30" as="geometry"/>
                </mxCell>
                <mxCell id="hzhiiLF0QnC_eUO_uc99-85" style="edgeStyle=orthogonalEdgeStyle;rounded=0;orthogonalLoop=1;jettySize=auto;html=1;entryX=1.034;entryY=0.808;entryDx=0;entryDy=0;entryPerimeter=0;endArrow=block;endFill=0;endSize=10;" parent="WIyWlLk6GJQsqaUBKTNV-1" source="hzhiiLF0QnC_eUO_uc99-80" target="zkfFHV4jXpPFQw0GAbJ--8" edge="1">
                    <mxGeometry relative="1" as="geometry"/>
                </mxCell>
                <mxCell id="hzhiiLF0QnC_eUO_uc99-80" value="Assignment" style="swimlane;fontStyle=0;align=center;verticalAlign=top;childLayout=stackLayout;horizontal=1;startSize=26;horizontalStack=0;resizeParent=1;resizeLast=0;collapsible=1;marginBottom=0;rounded=0;shadow=0;strokeWidth=1;fillColor=#7F00FF;fontColor=#ffffff;strokeColor=#7F00FF;" parent="WIyWlLk6GJQsqaUBKTNV-1" vertex="1">
                    <mxGeometry x="400" y="282" width="160" height="130" as="geometry">
                        <mxRectangle x="340" y="380" width="170" height="26" as="alternateBounds"/>
                    </mxGeometry>
                </mxCell>
                <mxCell id="hzhiiLF0QnC_eUO_uc99-81" value="Id: " style="text;align=left;verticalAlign=top;spacingLeft=4;spacingRight=4;overflow=hidden;rotatable=0;points=[[0,0.5],[1,0.5]];portConstraint=eastwest;" parent="hzhiiLF0QnC_eUO_uc99-80" vertex="1">
                    <mxGeometry y="26" width="160" height="26" as="geometry"/>
                </mxCell>
                <mxCell id="hzhiiLF0QnC_eUO_uc99-82" value="RoomId:" style="text;align=left;verticalAlign=top;spacingLeft=4;spacingRight=4;overflow=hidden;rotatable=0;points=[[0,0.5],[1,0.5]];portConstraint=eastwest;" parent="hzhiiLF0QnC_eUO_uc99-80" vertex="1">
                    <mxGeometry y="52" width="160" height="26" as="geometry"/>
                </mxCell>
                <mxCell id="hzhiiLF0QnC_eUO_uc99-83" value="PersonId:" style="text;align=left;verticalAlign=top;spacingLeft=4;spacingRight=4;overflow=hidden;rotatable=0;points=[[0,0.5],[1,0.5]];portConstraint=eastwest;" parent="hzhiiLF0QnC_eUO_uc99-80" vertex="1">
                    <mxGeometry y="78" width="160" height="26" as="geometry"/>
                </mxCell>
                <mxCell id="hzhiiLF0QnC_eUO_uc99-84" value="Shift: 1,2,3" style="text;align=left;verticalAlign=top;spacingLeft=4;spacingRight=4;overflow=hidden;rotatable=0;points=[[0,0.5],[1,0.5]];portConstraint=eastwest;" parent="hzhiiLF0QnC_eUO_uc99-80" vertex="1">
                    <mxGeometry y="104" width="160" height="26" as="geometry"/>
                </mxCell>
                <mxCell id="hzhiiLF0QnC_eUO_uc99-86" style="edgeStyle=orthogonalEdgeStyle;rounded=0;orthogonalLoop=1;jettySize=auto;html=1;exitX=1;exitY=0.5;exitDx=0;exitDy=0;entryX=0;entryY=0.5;entryDx=0;entryDy=0;endArrow=block;endFill=0;endSize=10;" parent="WIyWlLk6GJQsqaUBKTNV-1" source="hzhiiLF0QnC_eUO_uc99-82" target="hzhiiLF0QnC_eUO_uc99-66" edge="1">
                    <mxGeometry relative="1" as="geometry"/>
                </mxCell>
                <mxCell id="RzIAEy3yuCvvebKTkvxz-0" value="&lt;font style=&quot;font-size: 20px;&quot; color=&quot;#ffffff&quot;&gt;&lt;i&gt;&lt;u&gt;&amp;nbsp;Roadmap/Types&lt;/u&gt;&lt;/i&gt;&lt;/font&gt;" style="text;strokeColor=none;align=center;fillColor=none;html=1;verticalAlign=middle;whiteSpace=wrap;rounded=0;strokeWidth=1;" parent="WIyWlLk6GJQsqaUBKTNV-1" vertex="1">
                    <mxGeometry x="50" y="10" width="60" height="30" as="geometry"/>
                </mxCell>
            </root>
        </mxGraphModel>
    </diagram>
    <diagram id="3i0qqkUKq_6QnDi-h3pO" name="States">
        <mxGraphModel dx="1327" dy="1058" grid="1" gridSize="10" guides="1" tooltips="1" connect="1" arrows="1" fold="1" page="1" pageScale="1" pageWidth="850" pageHeight="1100" math="0" shadow="0">
            <root>
                <mxCell id="0"/>
                <mxCell id="1" parent="0"/>
                <mxCell id="bEpzu-nuqBfEDvzC5S-Q-1" value="&lt;font style=&quot;font-size: 20px;&quot; color=&quot;#ffffff&quot;&gt;&lt;i&gt;&lt;u&gt;States&lt;/u&gt;&lt;/i&gt;&lt;/font&gt;" style="text;strokeColor=none;align=center;fillColor=none;html=1;verticalAlign=middle;whiteSpace=wrap;rounded=0;strokeWidth=1;" vertex="1" parent="1">
                    <mxGeometry y="10" width="60" height="30" as="geometry"/>
                </mxCell>
                <mxCell id="sQ6TVbxpneY5GU_leGEO-13" value="" style="edgeStyle=none;html=1;" edge="1" parent="1" source="sQ6TVbxpneY5GU_leGEO-1" target="sQ6TVbxpneY5GU_leGEO-3">
                    <mxGeometry relative="1" as="geometry"/>
                </mxCell>
                <mxCell id="sQ6TVbxpneY5GU_leGEO-1" value="SELECTING ROOM TYPE" style="ellipse" vertex="1" parent="1">
                    <mxGeometry x="40" y="280" width="170" height="30" as="geometry"/>
                </mxCell>
                <mxCell id="sQ6TVbxpneY5GU_leGEO-14" style="edgeStyle=none;html=1;entryX=0.5;entryY=1;entryDx=0;entryDy=0;" edge="1" parent="1" source="sQ6TVbxpneY5GU_leGEO-3" target="sQ6TVbxpneY5GU_leGEO-1">
                    <mxGeometry relative="1" as="geometry"/>
                </mxCell>
                <mxCell id="sQ6TVbxpneY5GU_leGEO-16" style="edgeStyle=none;html=1;exitX=0.5;exitY=1;exitDx=0;exitDy=0;entryX=0.5;entryY=1;entryDx=0;entryDy=0;" edge="1" parent="1" source="sQ6TVbxpneY5GU_leGEO-3" target="sQ6TVbxpneY5GU_leGEO-3">
                    <mxGeometry relative="1" as="geometry"/>
                </mxCell>
                <mxCell id="sQ6TVbxpneY5GU_leGEO-17" value="" style="edgeStyle=none;html=1;" edge="1" parent="1" source="sQ6TVbxpneY5GU_leGEO-3" target="sQ6TVbxpneY5GU_leGEO-6">
                    <mxGeometry relative="1" as="geometry"/>
                </mxCell>
                <mxCell id="sQ6TVbxpneY5GU_leGEO-3" value="SELECTING TILE" style="rounded=1;" vertex="1" parent="1">
                    <mxGeometry x="70" y="350" width="110" height="30" as="geometry"/>
                </mxCell>
                <mxCell id="sQ6TVbxpneY5GU_leGEO-18" style="edgeStyle=none;html=1;" edge="1" parent="1" source="sQ6TVbxpneY5GU_leGEO-6" target="sQ6TVbxpneY5GU_leGEO-3">
                    <mxGeometry relative="1" as="geometry"/>
                </mxCell>
                <mxCell id="AD93zqRf2z9awjNG6-Uv-42" style="edgeStyle=none;html=1;" edge="1" parent="1" source="sQ6TVbxpneY5GU_leGEO-6">
                    <mxGeometry relative="1" as="geometry">
                        <mxPoint x="125" y="490" as="targetPoint"/>
                    </mxGeometry>
                </mxCell>
                <mxCell id="sQ6TVbxpneY5GU_leGEO-6" value="DRAFTING ROOM" style="rounded=1;" vertex="1" parent="1">
                    <mxGeometry x="65" y="420" width="120" height="30" as="geometry"/>
                </mxCell>
                <mxCell id="sQ6TVbxpneY5GU_leGEO-9" value="&lt;font style=&quot;font-size: 20px;&quot; color=&quot;#ffffff&quot;&gt;&lt;i&gt;Building&lt;/i&gt;&lt;/font&gt;" style="text;strokeColor=none;align=center;fillColor=none;html=1;verticalAlign=middle;whiteSpace=wrap;rounded=0;strokeWidth=1;" vertex="1" parent="1">
                    <mxGeometry x="65" y="240" width="60" height="30" as="geometry"/>
                </mxCell>
                <mxCell id="AD93zqRf2z9awjNG6-Uv-55" style="edgeStyle=none;html=1;entryX=1;entryY=0;entryDx=0;entryDy=0;shape=link;" edge="1" parent="1" source="AD93zqRf2z9awjNG6-Uv-1" target="sQ6TVbxpneY5GU_leGEO-9">
                    <mxGeometry relative="1" as="geometry"/>
                </mxCell>
                <mxCell id="AD93zqRf2z9awjNG6-Uv-56" style="edgeStyle=none;html=1;entryX=0.5;entryY=0;entryDx=0;entryDy=0;shape=link;" edge="1" parent="1" source="AD93zqRf2z9awjNG6-Uv-1" target="AD93zqRf2z9awjNG6-Uv-24">
                    <mxGeometry relative="1" as="geometry"/>
                </mxCell>
                <mxCell id="AD93zqRf2z9awjNG6-Uv-57" style="edgeStyle=none;html=1;shape=link;" edge="1" parent="1" source="AD93zqRf2z9awjNG6-Uv-1" target="AD93zqRf2z9awjNG6-Uv-54">
                    <mxGeometry relative="1" as="geometry"/>
                </mxCell>
                <mxCell id="AD93zqRf2z9awjNG6-Uv-1" value="&lt;font style=&quot;font-size: 20px;&quot; color=&quot;#ffffff&quot;&gt;&lt;i&gt;Default&lt;/i&gt;&lt;/font&gt;" style="text;strokeColor=none;align=center;fillColor=none;html=1;verticalAlign=middle;whiteSpace=wrap;rounded=0;strokeWidth=1;" vertex="1" parent="1">
                    <mxGeometry x="340" y="120" width="60" height="30" as="geometry"/>
                </mxCell>
                <mxCell id="AD93zqRf2z9awjNG6-Uv-16" value="" style="edgeStyle=none;html=1;" edge="1" parent="1" source="AD93zqRf2z9awjNG6-Uv-17" target="AD93zqRf2z9awjNG6-Uv-21">
                    <mxGeometry relative="1" as="geometry"/>
                </mxCell>
                <mxCell id="AD93zqRf2z9awjNG6-Uv-17" value="SELECTING ROOM" style="ellipse" vertex="1" parent="1">
                    <mxGeometry x="327.5" y="280" width="145" height="30" as="geometry"/>
                </mxCell>
                <mxCell id="AD93zqRf2z9awjNG6-Uv-19" style="edgeStyle=none;html=1;exitX=0.5;exitY=1;exitDx=0;exitDy=0;entryX=0.5;entryY=1;entryDx=0;entryDy=0;" edge="1" parent="1" source="AD93zqRf2z9awjNG6-Uv-21" target="AD93zqRf2z9awjNG6-Uv-21">
                    <mxGeometry relative="1" as="geometry"/>
                </mxCell>
                <mxCell id="AD93zqRf2z9awjNG6-Uv-21" value="DELETING ROOM" style="rounded=1;" vertex="1" parent="1">
                    <mxGeometry x="342.5" y="350" width="115" height="30" as="geometry"/>
                </mxCell>
                <mxCell id="AD93zqRf2z9awjNG6-Uv-24" value="&lt;font style=&quot;font-size: 20px;&quot; color=&quot;#ffffff&quot;&gt;&lt;i&gt;Editing&lt;/i&gt;&lt;/font&gt;" style="text;strokeColor=none;align=center;fillColor=none;html=1;verticalAlign=middle;whiteSpace=wrap;rounded=0;strokeWidth=1;" vertex="1" parent="1">
                    <mxGeometry x="340" y="240" width="60" height="30" as="geometry"/>
                </mxCell>
                <mxCell id="AD93zqRf2z9awjNG6-Uv-25" value="" style="edgeStyle=none;html=1;" edge="1" parent="1" source="AD93zqRf2z9awjNG6-Uv-26" target="AD93zqRf2z9awjNG6-Uv-30">
                    <mxGeometry relative="1" as="geometry"/>
                </mxCell>
                <mxCell id="AD93zqRf2z9awjNG6-Uv-26" value="IDLING" style="ellipse" vertex="1" parent="1">
                    <mxGeometry x="60" y="790" width="80" height="30" as="geometry"/>
                </mxCell>
                <mxCell id="AD93zqRf2z9awjNG6-Uv-27" style="edgeStyle=none;html=1;entryX=0.5;entryY=1;entryDx=0;entryDy=0;" edge="1" parent="1" source="AD93zqRf2z9awjNG6-Uv-30" target="AD93zqRf2z9awjNG6-Uv-26">
                    <mxGeometry relative="1" as="geometry"/>
                </mxCell>
                <mxCell id="AD93zqRf2z9awjNG6-Uv-28" style="edgeStyle=none;html=1;exitX=0.5;exitY=1;exitDx=0;exitDy=0;entryX=0.5;entryY=1;entryDx=0;entryDy=0;" edge="1" parent="1" source="AD93zqRf2z9awjNG6-Uv-30" target="AD93zqRf2z9awjNG6-Uv-30">
                    <mxGeometry relative="1" as="geometry"/>
                </mxCell>
                <mxCell id="AD93zqRf2z9awjNG6-Uv-29" value="" style="edgeStyle=none;html=1;" edge="1" parent="1" source="AD93zqRf2z9awjNG6-Uv-30" target="AD93zqRf2z9awjNG6-Uv-32">
                    <mxGeometry relative="1" as="geometry"/>
                </mxCell>
                <mxCell id="AD93zqRf2z9awjNG6-Uv-30" value="WALKING" style="rounded=1;" vertex="1" parent="1">
                    <mxGeometry x="60" y="860" width="80" height="30" as="geometry"/>
                </mxCell>
                <mxCell id="AD93zqRf2z9awjNG6-Uv-31" style="edgeStyle=none;html=1;" edge="1" parent="1" source="AD93zqRf2z9awjNG6-Uv-32" target="AD93zqRf2z9awjNG6-Uv-30">
                    <mxGeometry relative="1" as="geometry"/>
                </mxCell>
                <mxCell id="AD93zqRf2z9awjNG6-Uv-32" value="WORKING" style="rounded=1;" vertex="1" parent="1">
                    <mxGeometry x="60" y="930" width="80" height="30" as="geometry"/>
                </mxCell>
                <mxCell id="AD93zqRf2z9awjNG6-Uv-61" style="edgeStyle=none;html=1;shape=link;" edge="1" parent="1" source="AD93zqRf2z9awjNG6-Uv-33">
                    <mxGeometry relative="1" as="geometry">
                        <mxPoint x="150" y="765" as="targetPoint"/>
                    </mxGeometry>
                </mxCell>
                <mxCell id="AD93zqRf2z9awjNG6-Uv-33" value="&lt;font style=&quot;font-size: 20px;&quot; color=&quot;#ffffff&quot;&gt;&lt;i&gt;Crew&lt;/i&gt;&lt;/font&gt;" style="text;strokeColor=none;align=center;fillColor=none;html=1;verticalAlign=middle;whiteSpace=wrap;rounded=0;strokeWidth=1;" vertex="1" parent="1">
                    <mxGeometry x="40" y="750" width="60" height="30" as="geometry"/>
                </mxCell>
                <mxCell id="AD93zqRf2z9awjNG6-Uv-34" value="" style="edgeStyle=none;html=1;" edge="1" parent="1" source="AD93zqRf2z9awjNG6-Uv-35" target="AD93zqRf2z9awjNG6-Uv-38">
                    <mxGeometry relative="1" as="geometry"/>
                </mxCell>
                <mxCell id="AD93zqRf2z9awjNG6-Uv-35" value="NONE" style="ellipse" vertex="1" parent="1">
                    <mxGeometry x="190" y="790" width="80" height="30" as="geometry"/>
                </mxCell>
                <mxCell id="AD93zqRf2z9awjNG6-Uv-36" style="edgeStyle=none;html=1;entryX=0.5;entryY=1;entryDx=0;entryDy=0;" edge="1" parent="1" source="AD93zqRf2z9awjNG6-Uv-38" target="AD93zqRf2z9awjNG6-Uv-35">
                    <mxGeometry relative="1" as="geometry"/>
                </mxCell>
                <mxCell id="AD93zqRf2z9awjNG6-Uv-37" style="edgeStyle=none;html=1;exitX=0.5;exitY=1;exitDx=0;exitDy=0;entryX=0.5;entryY=1;entryDx=0;entryDy=0;" edge="1" parent="1" source="AD93zqRf2z9awjNG6-Uv-38" target="AD93zqRf2z9awjNG6-Uv-38">
                    <mxGeometry relative="1" as="geometry"/>
                </mxCell>
                <mxCell id="AD93zqRf2z9awjNG6-Uv-38" value="ASSIGNING" style="rounded=1;" vertex="1" parent="1">
                    <mxGeometry x="190" y="860" width="80" height="30" as="geometry"/>
                </mxCell>
                <mxCell id="AD93zqRf2z9awjNG6-Uv-39" value="&lt;font style=&quot;font-size: 20px;&quot; color=&quot;#ffffff&quot;&gt;&lt;i&gt;Interaction&lt;/i&gt;&lt;/font&gt;" style="text;strokeColor=none;align=center;fillColor=none;html=1;verticalAlign=middle;whiteSpace=wrap;rounded=0;strokeWidth=1;" vertex="1" parent="1">
                    <mxGeometry x="170" y="750" width="60" height="30" as="geometry"/>
                </mxCell>
                <mxCell id="AD93zqRf2z9awjNG6-Uv-41" value="" style="edgeStyle=none;html=1;" edge="1" parent="1" source="AD93zqRf2z9awjNG6-Uv-40" target="sQ6TVbxpneY5GU_leGEO-6">
                    <mxGeometry relative="1" as="geometry"/>
                </mxCell>
                <mxCell id="AD93zqRf2z9awjNG6-Uv-44" value="" style="edgeStyle=none;html=1;" edge="1" parent="1" source="AD93zqRf2z9awjNG6-Uv-40" target="AD93zqRf2z9awjNG6-Uv-43">
                    <mxGeometry relative="1" as="geometry"/>
                </mxCell>
                <mxCell id="AD93zqRf2z9awjNG6-Uv-40" value="SETTING DOOR" style="rounded=1;" vertex="1" parent="1">
                    <mxGeometry x="65" y="490" width="120" height="30" as="geometry"/>
                </mxCell>
                <mxCell id="AD93zqRf2z9awjNG6-Uv-45" style="edgeStyle=none;html=1;" edge="1" parent="1" source="AD93zqRf2z9awjNG6-Uv-43" target="AD93zqRf2z9awjNG6-Uv-40">
                    <mxGeometry relative="1" as="geometry"/>
                </mxCell>
                <mxCell id="AD93zqRf2z9awjNG6-Uv-43" value="CONFIRMING ROOM" style="rounded=1;" vertex="1" parent="1">
                    <mxGeometry x="60" y="560" width="130" height="30" as="geometry"/>
                </mxCell>
                <mxCell id="AD93zqRf2z9awjNG6-Uv-51" value="SELECTING ROOM" style="ellipse" vertex="1" parent="1">
                    <mxGeometry x="555" y="278.82" width="145" height="30" as="geometry"/>
                </mxCell>
                <mxCell id="AD93zqRf2z9awjNG6-Uv-54" value="&lt;font style=&quot;font-size: 20px;&quot; color=&quot;#ffffff&quot;&gt;&lt;i&gt;Crew&lt;/i&gt;&lt;/font&gt;" style="text;strokeColor=none;align=center;fillColor=none;html=1;verticalAlign=middle;whiteSpace=wrap;rounded=0;strokeWidth=1;" vertex="1" parent="1">
                    <mxGeometry x="567.5" y="238.82" width="60" height="30" as="geometry"/>
                </mxCell>
                <mxCell id="AD93zqRf2z9awjNG6-Uv-59" value="&lt;h2&gt;&lt;font style=&quot;font-size: 20px;&quot; color=&quot;#ffffff&quot;&gt;&lt;i&gt;GameState&lt;/i&gt;&lt;/font&gt;&lt;/h2&gt;" style="text;strokeColor=none;align=center;fillColor=none;html=1;verticalAlign=middle;whiteSpace=wrap;rounded=0;strokeWidth=1;" vertex="1" parent="1">
                    <mxGeometry x="60" y="90" width="60" height="30" as="geometry"/>
                </mxCell>
                <mxCell id="AD93zqRf2z9awjNG6-Uv-60" value="&lt;h2&gt;&lt;font style=&quot;font-size: 20px;&quot; color=&quot;#ffffff&quot;&gt;&lt;i&gt;CrewState&lt;/i&gt;&lt;/font&gt;&lt;/h2&gt;" style="text;strokeColor=none;align=center;fillColor=none;html=1;verticalAlign=middle;whiteSpace=wrap;rounded=0;strokeWidth=1;" vertex="1" parent="1">
                    <mxGeometry x="50" y="690" width="60" height="30" as="geometry"/>
                </mxCell>
            </root>
        </mxGraphModel>
    </diagram>
</mxfile>